<?xml version="1.0"?>

<svg xmlns="http://www.w3.org/2000/svg" xmlns:xlink="http://www.w3.org/1999/xlink" version="1.1" width="1166px" height="1166px" viewBox="0 0 1166 1166">
<defs/>
<rect x="0" y="0" width="1166" height="1166" fill="#ffffff" fill-opacity="0.99212598425197"/>
<rect x="38" y="38" width="33" height="33" fill="#000000"/>
<rect x="71" y="38" width="33" height="33" fill="#000000"/>
<rect x="104" y="38" width="33" height="33" fill="#000000"/>
<rect x="137" y="38" width="33" height="33" fill="#000000"/>
<rect x="170" y="38" width="33" height="33" fill="#000000"/>
<rect x="203" y="38" width="33" height="33" fill="#000000"/>
<rect x="236" y="38" width="33" height="33" fill="#000000"/>
<rect x="368" y="38" width="33" height="33" fill="#000000"/>
<rect x="500" y="38" width="33" height="33" fill="#000000"/>
<rect x="533" y="38" width="33" height="33" fill="#000000"/>
<rect x="632" y="38" width="33" height="33" fill="#000000"/>
<rect x="698" y="38" width="33" height="33" fill="#000000"/>
<rect x="731" y="38" width="33" height="33" fill="#000000"/>
<rect x="830" y="38" width="33" height="33" fill="#000000"/>
<rect x="896" y="38" width="33" height="33" fill="#000000"/>
<rect x="929" y="38" width="33" height="33" fill="#000000"/>
<rect x="962" y="38" width="33" height="33" fill="#000000"/>
<rect x="995" y="38" width="33" height="33" fill="#000000"/>
<rect x="1028" y="38" width="33" height="33" fill="#000000"/>
<rect x="1061" y="38" width="33" height="33" fill="#000000"/>
<rect x="1094" y="38" width="33" height="33" fill="#000000"/>
<rect x="38" y="71" width="33" height="33" fill="#000000"/>
<rect x="236" y="71" width="33" height="33" fill="#000000"/>
<rect x="302" y="71" width="33" height="33" fill="#000000"/>
<rect x="335" y="71" width="33" height="33" fill="#000000"/>
<rect x="401" y="71" width="33" height="33" fill="#000000"/>
<rect x="434" y="71" width="33" height="33" fill="#000000"/>
<rect x="500" y="71" width="33" height="33" fill="#000000"/>
<rect x="566" y="71" width="33" height="33" fill="#000000"/>
<rect x="665" y="71" width="33" height="33" fill="#000000"/>
<rect x="731" y="71" width="33" height="33" fill="#000000"/>
<rect x="764" y="71" width="33" height="33" fill="#000000"/>
<rect x="830" y="71" width="33" height="33" fill="#000000"/>
<rect x="896" y="71" width="33" height="33" fill="#000000"/>
<rect x="1094" y="71" width="33" height="33" fill="#000000"/>
<rect x="38" y="104" width="33" height="33" fill="#000000"/>
<rect x="104" y="104" width="33" height="33" fill="#000000"/>
<rect x="137" y="104" width="33" height="33" fill="#000000"/>
<rect x="170" y="104" width="33" height="33" fill="#000000"/>
<rect x="236" y="104" width="33" height="33" fill="#000000"/>
<rect x="302" y="104" width="33" height="33" fill="#000000"/>
<rect x="368" y="104" width="33" height="33" fill="#000000"/>
<rect x="434" y="104" width="33" height="33" fill="#000000"/>
<rect x="467" y="104" width="33" height="33" fill="#000000"/>
<rect x="500" y="104" width="33" height="33" fill="#000000"/>
<rect x="632" y="104" width="33" height="33" fill="#000000"/>
<rect x="665" y="104" width="33" height="33" fill="#000000"/>
<rect x="698" y="104" width="33" height="33" fill="#000000"/>
<rect x="764" y="104" width="33" height="33" fill="#000000"/>
<rect x="896" y="104" width="33" height="33" fill="#000000"/>
<rect x="962" y="104" width="33" height="33" fill="#000000"/>
<rect x="995" y="104" width="33" height="33" fill="#000000"/>
<rect x="1028" y="104" width="33" height="33" fill="#000000"/>
<rect x="1094" y="104" width="33" height="33" fill="#000000"/>
<rect x="38" y="137" width="33" height="33" fill="#000000"/>
<rect x="104" y="137" width="33" height="33" fill="#000000"/>
<rect x="137" y="137" width="33" height="33" fill="#000000"/>
<rect x="170" y="137" width="33" height="33" fill="#000000"/>
<rect x="236" y="137" width="33" height="33" fill="#000000"/>
<rect x="302" y="137" width="33" height="33" fill="#000000"/>
<rect x="335" y="137" width="33" height="33" fill="#000000"/>
<rect x="434" y="137" width="33" height="33" fill="#000000"/>
<rect x="500" y="137" width="33" height="33" fill="#000000"/>
<rect x="533" y="137" width="33" height="33" fill="#000000"/>
<rect x="566" y="137" width="33" height="33" fill="#000000"/>
<rect x="632" y="137" width="33" height="33" fill="#000000"/>
<rect x="665" y="137" width="33" height="33" fill="#000000"/>
<rect x="698" y="137" width="33" height="33" fill="#000000"/>
<rect x="731" y="137" width="33" height="33" fill="#000000"/>
<rect x="764" y="137" width="33" height="33" fill="#000000"/>
<rect x="830" y="137" width="33" height="33" fill="#000000"/>
<rect x="896" y="137" width="33" height="33" fill="#000000"/>
<rect x="962" y="137" width="33" height="33" fill="#000000"/>
<rect x="995" y="137" width="33" height="33" fill="#000000"/>
<rect x="1028" y="137" width="33" height="33" fill="#000000"/>
<rect x="1094" y="137" width="33" height="33" fill="#000000"/>
<rect x="38" y="170" width="33" height="33" fill="#000000"/>
<rect x="104" y="170" width="33" height="33" fill="#000000"/>
<rect x="137" y="170" width="33" height="33" fill="#000000"/>
<rect x="170" y="170" width="33" height="33" fill="#000000"/>
<rect x="236" y="170" width="33" height="33" fill="#000000"/>
<rect x="302" y="170" width="33" height="33" fill="#000000"/>
<rect x="368" y="170" width="33" height="33" fill="#000000"/>
<rect x="401" y="170" width="33" height="33" fill="#000000"/>
<rect x="434" y="170" width="33" height="33" fill="#000000"/>
<rect x="500" y="170" width="33" height="33" fill="#000000"/>
<rect x="533" y="170" width="33" height="33" fill="#000000"/>
<rect x="599" y="170" width="33" height="33" fill="#000000"/>
<rect x="731" y="170" width="33" height="33" fill="#000000"/>
<rect x="797" y="170" width="33" height="33" fill="#000000"/>
<rect x="830" y="170" width="33" height="33" fill="#000000"/>
<rect x="896" y="170" width="33" height="33" fill="#000000"/>
<rect x="962" y="170" width="33" height="33" fill="#000000"/>
<rect x="995" y="170" width="33" height="33" fill="#000000"/>
<rect x="1028" y="170" width="33" height="33" fill="#000000"/>
<rect x="1094" y="170" width="33" height="33" fill="#000000"/>
<rect x="38" y="203" width="33" height="33" fill="#000000"/>
<rect x="236" y="203" width="33" height="33" fill="#000000"/>
<rect x="302" y="203" width="33" height="33" fill="#000000"/>
<rect x="566" y="203" width="33" height="33" fill="#000000"/>
<rect x="599" y="203" width="33" height="33" fill="#000000"/>
<rect x="665" y="203" width="33" height="33" fill="#000000"/>
<rect x="731" y="203" width="33" height="33" fill="#000000"/>
<rect x="797" y="203" width="33" height="33" fill="#000000"/>
<rect x="896" y="203" width="33" height="33" fill="#000000"/>
<rect x="1094" y="203" width="33" height="33" fill="#000000"/>
<rect x="38" y="236" width="33" height="33" fill="#000000"/>
<rect x="71" y="236" width="33" height="33" fill="#000000"/>
<rect x="104" y="236" width="33" height="33" fill="#000000"/>
<rect x="137" y="236" width="33" height="33" fill="#000000"/>
<rect x="170" y="236" width="33" height="33" fill="#000000"/>
<rect x="203" y="236" width="33" height="33" fill="#000000"/>
<rect x="236" y="236" width="33" height="33" fill="#000000"/>
<rect x="302" y="236" width="33" height="33" fill="#000000"/>
<rect x="368" y="236" width="33" height="33" fill="#000000"/>
<rect x="434" y="236" width="33" height="33" fill="#000000"/>
<rect x="500" y="236" width="33" height="33" fill="#000000"/>
<rect x="566" y="236" width="33" height="33" fill="#000000"/>
<rect x="632" y="236" width="33" height="33" fill="#000000"/>
<rect x="698" y="236" width="33" height="33" fill="#000000"/>
<rect x="764" y="236" width="33" height="33" fill="#000000"/>
<rect x="830" y="236" width="33" height="33" fill="#000000"/>
<rect x="896" y="236" width="33" height="33" fill="#000000"/>
<rect x="929" y="236" width="33" height="33" fill="#000000"/>
<rect x="962" y="236" width="33" height="33" fill="#000000"/>
<rect x="995" y="236" width="33" height="33" fill="#000000"/>
<rect x="1028" y="236" width="33" height="33" fill="#000000"/>
<rect x="1061" y="236" width="33" height="33" fill="#000000"/>
<rect x="1094" y="236" width="33" height="33" fill="#000000"/>
<rect x="335" y="269" width="33" height="33" fill="#000000"/>
<rect x="401" y="269" width="33" height="33" fill="#000000"/>
<rect x="434" y="269" width="33" height="33" fill="#000000"/>
<rect x="500" y="269" width="33" height="33" fill="#000000"/>
<rect x="599" y="269" width="33" height="33" fill="#000000"/>
<rect x="632" y="269" width="33" height="33" fill="#000000"/>
<rect x="665" y="269" width="33" height="33" fill="#000000"/>
<rect x="698" y="269" width="33" height="33" fill="#000000"/>
<rect x="731" y="269" width="33" height="33" fill="#000000"/>
<rect x="797" y="269" width="33" height="33" fill="#000000"/>
<rect x="830" y="269" width="33" height="33" fill="#000000"/>
<rect x="104" y="302" width="33" height="33" fill="#000000"/>
<rect x="203" y="302" width="33" height="33" fill="#000000"/>
<rect x="236" y="302" width="33" height="33" fill="#000000"/>
<rect x="269" y="302" width="33" height="33" fill="#000000"/>
<rect x="302" y="302" width="33" height="33" fill="#000000"/>
<rect x="335" y="302" width="33" height="33" fill="#000000"/>
<rect x="401" y="302" width="33" height="33" fill="#000000"/>
<rect x="434" y="302" width="33" height="33" fill="#000000"/>
<rect x="566" y="302" width="33" height="33" fill="#000000"/>
<rect x="599" y="302" width="33" height="33" fill="#000000"/>
<rect x="665" y="302" width="33" height="33" fill="#000000"/>
<rect x="698" y="302" width="33" height="33" fill="#000000"/>
<rect x="797" y="302" width="33" height="33" fill="#000000"/>
<rect x="830" y="302" width="33" height="33" fill="#000000"/>
<rect x="863" y="302" width="33" height="33" fill="#000000"/>
<rect x="929" y="302" width="33" height="33" fill="#000000"/>
<rect x="962" y="302" width="33" height="33" fill="#000000"/>
<rect x="995" y="302" width="33" height="33" fill="#000000"/>
<rect x="1028" y="302" width="33" height="33" fill="#000000"/>
<rect x="1061" y="302" width="33" height="33" fill="#000000"/>
<rect x="38" y="335" width="33" height="33" fill="#000000"/>
<rect x="71" y="335" width="33" height="33" fill="#000000"/>
<rect x="104" y="335" width="33" height="33" fill="#000000"/>
<rect x="137" y="335" width="33" height="33" fill="#000000"/>
<rect x="269" y="335" width="33" height="33" fill="#000000"/>
<rect x="401" y="335" width="33" height="33" fill="#000000"/>
<rect x="434" y="335" width="33" height="33" fill="#000000"/>
<rect x="500" y="335" width="33" height="33" fill="#000000"/>
<rect x="599" y="335" width="33" height="33" fill="#000000"/>
<rect x="665" y="335" width="33" height="33" fill="#000000"/>
<rect x="830" y="335" width="33" height="33" fill="#000000"/>
<rect x="929" y="335" width="33" height="33" fill="#000000"/>
<rect x="995" y="335" width="33" height="33" fill="#000000"/>
<rect x="1061" y="335" width="33" height="33" fill="#000000"/>
<rect x="1094" y="335" width="33" height="33" fill="#000000"/>
<rect x="71" y="368" width="33" height="33" fill="#000000"/>
<rect x="104" y="368" width="33" height="33" fill="#000000"/>
<rect x="170" y="368" width="33" height="33" fill="#000000"/>
<rect x="236" y="368" width="33" height="33" fill="#000000"/>
<rect x="269" y="368" width="33" height="33" fill="#000000"/>
<rect x="401" y="368" width="33" height="33" fill="#000000"/>
<rect x="467" y="368" width="33" height="33" fill="#000000"/>
<rect x="566" y="368" width="33" height="33" fill="#000000"/>
<rect x="599" y="368" width="33" height="33" fill="#000000"/>
<rect x="632" y="368" width="33" height="33" fill="#000000"/>
<rect x="665" y="368" width="33" height="33" fill="#000000"/>
<rect x="830" y="368" width="33" height="33" fill="#000000"/>
<rect x="896" y="368" width="33" height="33" fill="#000000"/>
<rect x="38" y="401" width="33" height="33" fill="#000000"/>
<rect x="137" y="401" width="33" height="33" fill="#000000"/>
<rect x="170" y="401" width="33" height="33" fill="#000000"/>
<rect x="203" y="401" width="33" height="33" fill="#000000"/>
<rect x="302" y="401" width="33" height="33" fill="#000000"/>
<rect x="368" y="401" width="33" height="33" fill="#000000"/>
<rect x="401" y="401" width="33" height="33" fill="#000000"/>
<rect x="500" y="401" width="33" height="33" fill="#000000"/>
<rect x="566" y="401" width="33" height="33" fill="#000000"/>
<rect x="599" y="401" width="33" height="33" fill="#000000"/>
<rect x="698" y="401" width="33" height="33" fill="#000000"/>
<rect x="731" y="401" width="33" height="33" fill="#000000"/>
<rect x="797" y="401" width="33" height="33" fill="#000000"/>
<rect x="830" y="401" width="33" height="33" fill="#000000"/>
<rect x="896" y="401" width="33" height="33" fill="#000000"/>
<rect x="929" y="401" width="33" height="33" fill="#000000"/>
<rect x="995" y="401" width="33" height="33" fill="#000000"/>
<rect x="1094" y="401" width="33" height="33" fill="#000000"/>
<rect x="38" y="434" width="33" height="33" fill="#000000"/>
<rect x="71" y="434" width="33" height="33" fill="#000000"/>
<rect x="104" y="434" width="33" height="33" fill="#000000"/>
<rect x="137" y="434" width="33" height="33" fill="#000000"/>
<rect x="170" y="434" width="33" height="33" fill="#000000"/>
<rect x="236" y="434" width="33" height="33" fill="#000000"/>
<rect x="335" y="434" width="33" height="33" fill="#000000"/>
<rect x="368" y="434" width="33" height="33" fill="#000000"/>
<rect x="434" y="434" width="33" height="33" fill="#000000"/>
<rect x="467" y="434" width="33" height="33" fill="#000000"/>
<rect x="533" y="434" width="33" height="33" fill="#000000"/>
<rect x="566" y="434" width="33" height="33" fill="#000000"/>
<rect x="599" y="434" width="33" height="33" fill="#000000"/>
<rect x="797" y="434" width="33" height="33" fill="#000000"/>
<rect x="830" y="434" width="33" height="33" fill="#000000"/>
<rect x="863" y="434" width="33" height="33" fill="#000000"/>
<rect x="929" y="434" width="33" height="33" fill="#000000"/>
<rect x="962" y="434" width="33" height="33" fill="#000000"/>
<rect x="995" y="434" width="33" height="33" fill="#000000"/>
<rect x="1061" y="434" width="33" height="33" fill="#000000"/>
<rect x="1094" y="434" width="33" height="33" fill="#000000"/>
<rect x="71" y="467" width="33" height="33" fill="#000000"/>
<rect x="104" y="467" width="33" height="33" fill="#000000"/>
<rect x="203" y="467" width="33" height="33" fill="#000000"/>
<rect x="335" y="467" width="33" height="33" fill="#000000"/>
<rect x="368" y="467" width="33" height="33" fill="#000000"/>
<rect x="401" y="467" width="33" height="33" fill="#000000"/>
<rect x="467" y="467" width="33" height="33" fill="#000000"/>
<rect x="500" y="467" width="33" height="33" fill="#000000"/>
<rect x="533" y="467" width="33" height="33" fill="#000000"/>
<rect x="566" y="467" width="33" height="33" fill="#000000"/>
<rect x="632" y="467" width="33" height="33" fill="#000000"/>
<rect x="665" y="467" width="33" height="33" fill="#000000"/>
<rect x="698" y="467" width="33" height="33" fill="#000000"/>
<rect x="863" y="467" width="33" height="33" fill="#000000"/>
<rect x="929" y="467" width="33" height="33" fill="#000000"/>
<rect x="962" y="467" width="33" height="33" fill="#000000"/>
<rect x="995" y="467" width="33" height="33" fill="#000000"/>
<rect x="104" y="500" width="33" height="33" fill="#000000"/>
<rect x="236" y="500" width="33" height="33" fill="#000000"/>
<rect x="269" y="500" width="33" height="33" fill="#000000"/>
<rect x="467" y="500" width="33" height="33" fill="#000000"/>
<rect x="566" y="500" width="33" height="33" fill="#000000"/>
<rect x="665" y="500" width="33" height="33" fill="#000000"/>
<rect x="764" y="500" width="33" height="33" fill="#000000"/>
<rect x="830" y="500" width="33" height="33" fill="#000000"/>
<rect x="896" y="500" width="33" height="33" fill="#000000"/>
<rect x="929" y="500" width="33" height="33" fill="#000000"/>
<rect x="1094" y="500" width="33" height="33" fill="#000000"/>
<rect x="38" y="533" width="33" height="33" fill="#000000"/>
<rect x="71" y="533" width="33" height="33" fill="#000000"/>
<rect x="137" y="533" width="33" height="33" fill="#000000"/>
<rect x="170" y="533" width="33" height="33" fill="#000000"/>
<rect x="269" y="533" width="33" height="33" fill="#000000"/>
<rect x="302" y="533" width="33" height="33" fill="#000000"/>
<rect x="368" y="533" width="33" height="33" fill="#000000"/>
<rect x="401" y="533" width="33" height="33" fill="#000000"/>
<rect x="434" y="533" width="33" height="33" fill="#000000"/>
<rect x="467" y="533" width="33" height="33" fill="#000000"/>
<rect x="533" y="533" width="33" height="33" fill="#000000"/>
<rect x="632" y="533" width="33" height="33" fill="#000000"/>
<rect x="731" y="533" width="33" height="33" fill="#000000"/>
<rect x="764" y="533" width="33" height="33" fill="#000000"/>
<rect x="797" y="533" width="33" height="33" fill="#000000"/>
<rect x="830" y="533" width="33" height="33" fill="#000000"/>
<rect x="896" y="533" width="33" height="33" fill="#000000"/>
<rect x="929" y="533" width="33" height="33" fill="#000000"/>
<rect x="1094" y="533" width="33" height="33" fill="#000000"/>
<rect x="137" y="566" width="33" height="33" fill="#000000"/>
<rect x="170" y="566" width="33" height="33" fill="#000000"/>
<rect x="203" y="566" width="33" height="33" fill="#000000"/>
<rect x="236" y="566" width="33" height="33" fill="#000000"/>
<rect x="335" y="566" width="33" height="33" fill="#000000"/>
<rect x="401" y="566" width="33" height="33" fill="#000000"/>
<rect x="434" y="566" width="33" height="33" fill="#000000"/>
<rect x="500" y="566" width="33" height="33" fill="#000000"/>
<rect x="533" y="566" width="33" height="33" fill="#000000"/>
<rect x="632" y="566" width="33" height="33" fill="#000000"/>
<rect x="764" y="566" width="33" height="33" fill="#000000"/>
<rect x="797" y="566" width="33" height="33" fill="#000000"/>
<rect x="830" y="566" width="33" height="33" fill="#000000"/>
<rect x="863" y="566" width="33" height="33" fill="#000000"/>
<rect x="896" y="566" width="33" height="33" fill="#000000"/>
<rect x="929" y="566" width="33" height="33" fill="#000000"/>
<rect x="995" y="566" width="33" height="33" fill="#000000"/>
<rect x="1028" y="566" width="33" height="33" fill="#000000"/>
<rect x="1061" y="566" width="33" height="33" fill="#000000"/>
<rect x="137" y="599" width="33" height="33" fill="#000000"/>
<rect x="203" y="599" width="33" height="33" fill="#000000"/>
<rect x="335" y="599" width="33" height="33" fill="#000000"/>
<rect x="434" y="599" width="33" height="33" fill="#000000"/>
<rect x="500" y="599" width="33" height="33" fill="#000000"/>
<rect x="533" y="599" width="33" height="33" fill="#000000"/>
<rect x="566" y="599" width="33" height="33" fill="#000000"/>
<rect x="599" y="599" width="33" height="33" fill="#000000"/>
<rect x="698" y="599" width="33" height="33" fill="#000000"/>
<rect x="863" y="599" width="33" height="33" fill="#000000"/>
<rect x="896" y="599" width="33" height="33" fill="#000000"/>
<rect x="71" y="632" width="33" height="33" fill="#000000"/>
<rect x="104" y="632" width="33" height="33" fill="#000000"/>
<rect x="137" y="632" width="33" height="33" fill="#000000"/>
<rect x="170" y="632" width="33" height="33" fill="#000000"/>
<rect x="203" y="632" width="33" height="33" fill="#000000"/>
<rect x="236" y="632" width="33" height="33" fill="#000000"/>
<rect x="269" y="632" width="33" height="33" fill="#000000"/>
<rect x="302" y="632" width="33" height="33" fill="#000000"/>
<rect x="335" y="632" width="33" height="33" fill="#000000"/>
<rect x="368" y="632" width="33" height="33" fill="#000000"/>
<rect x="401" y="632" width="33" height="33" fill="#000000"/>
<rect x="434" y="632" width="33" height="33" fill="#000000"/>
<rect x="500" y="632" width="33" height="33" fill="#000000"/>
<rect x="533" y="632" width="33" height="33" fill="#000000"/>
<rect x="566" y="632" width="33" height="33" fill="#000000"/>
<rect x="599" y="632" width="33" height="33" fill="#000000"/>
<rect x="665" y="632" width="33" height="33" fill="#000000"/>
<rect x="797" y="632" width="33" height="33" fill="#000000"/>
<rect x="896" y="632" width="33" height="33" fill="#000000"/>
<rect x="995" y="632" width="33" height="33" fill="#000000"/>
<rect x="1061" y="632" width="33" height="33" fill="#000000"/>
<rect x="1094" y="632" width="33" height="33" fill="#000000"/>
<rect x="71" y="665" width="33" height="33" fill="#000000"/>
<rect x="104" y="665" width="33" height="33" fill="#000000"/>
<rect x="137" y="665" width="33" height="33" fill="#000000"/>
<rect x="170" y="665" width="33" height="33" fill="#000000"/>
<rect x="203" y="665" width="33" height="33" fill="#000000"/>
<rect x="401" y="665" width="33" height="33" fill="#000000"/>
<rect x="434" y="665" width="33" height="33" fill="#000000"/>
<rect x="500" y="665" width="33" height="33" fill="#000000"/>
<rect x="599" y="665" width="33" height="33" fill="#000000"/>
<rect x="632" y="665" width="33" height="33" fill="#000000"/>
<rect x="731" y="665" width="33" height="33" fill="#000000"/>
<rect x="797" y="665" width="33" height="33" fill="#000000"/>
<rect x="830" y="665" width="33" height="33" fill="#000000"/>
<rect x="896" y="665" width="33" height="33" fill="#000000"/>
<rect x="929" y="665" width="33" height="33" fill="#000000"/>
<rect x="1061" y="665" width="33" height="33" fill="#000000"/>
<rect x="1094" y="665" width="33" height="33" fill="#000000"/>
<rect x="38" y="698" width="33" height="33" fill="#000000"/>
<rect x="71" y="698" width="33" height="33" fill="#000000"/>
<rect x="104" y="698" width="33" height="33" fill="#000000"/>
<rect x="137" y="698" width="33" height="33" fill="#000000"/>
<rect x="203" y="698" width="33" height="33" fill="#000000"/>
<rect x="236" y="698" width="33" height="33" fill="#000000"/>
<rect x="269" y="698" width="33" height="33" fill="#000000"/>
<rect x="302" y="698" width="33" height="33" fill="#000000"/>
<rect x="368" y="698" width="33" height="33" fill="#000000"/>
<rect x="434" y="698" width="33" height="33" fill="#000000"/>
<rect x="500" y="698" width="33" height="33" fill="#000000"/>
<rect x="566" y="698" width="33" height="33" fill="#000000"/>
<rect x="665" y="698" width="33" height="33" fill="#000000"/>
<rect x="698" y="698" width="33" height="33" fill="#000000"/>
<rect x="797" y="698" width="33" height="33" fill="#000000"/>
<rect x="929" y="698" width="33" height="33" fill="#000000"/>
<rect x="995" y="698" width="33" height="33" fill="#000000"/>
<rect x="1028" y="698" width="33" height="33" fill="#000000"/>
<rect x="1094" y="698" width="33" height="33" fill="#000000"/>
<rect x="71" y="731" width="33" height="33" fill="#000000"/>
<rect x="137" y="731" width="33" height="33" fill="#000000"/>
<rect x="302" y="731" width="33" height="33" fill="#000000"/>
<rect x="368" y="731" width="33" height="33" fill="#000000"/>
<rect x="401" y="731" width="33" height="33" fill="#000000"/>
<rect x="434" y="731" width="33" height="33" fill="#000000"/>
<rect x="467" y="731" width="33" height="33" fill="#000000"/>
<rect x="500" y="731" width="33" height="33" fill="#000000"/>
<rect x="566" y="731" width="33" height="33" fill="#000000"/>
<rect x="599" y="731" width="33" height="33" fill="#000000"/>
<rect x="632" y="731" width="33" height="33" fill="#000000"/>
<rect x="665" y="731" width="33" height="33" fill="#000000"/>
<rect x="797" y="731" width="33" height="33" fill="#000000"/>
<rect x="830" y="731" width="33" height="33" fill="#000000"/>
<rect x="863" y="731" width="33" height="33" fill="#000000"/>
<rect x="896" y="731" width="33" height="33" fill="#000000"/>
<rect x="929" y="731" width="33" height="33" fill="#000000"/>
<rect x="962" y="731" width="33" height="33" fill="#000000"/>
<rect x="995" y="731" width="33" height="33" fill="#000000"/>
<rect x="1094" y="731" width="33" height="33" fill="#000000"/>
<rect x="38" y="764" width="33" height="33" fill="#000000"/>
<rect x="71" y="764" width="33" height="33" fill="#000000"/>
<rect x="137" y="764" width="33" height="33" fill="#000000"/>
<rect x="170" y="764" width="33" height="33" fill="#000000"/>
<rect x="203" y="764" width="33" height="33" fill="#000000"/>
<rect x="236" y="764" width="33" height="33" fill="#000000"/>
<rect x="335" y="764" width="33" height="33" fill="#000000"/>
<rect x="368" y="764" width="33" height="33" fill="#000000"/>
<rect x="401" y="764" width="33" height="33" fill="#000000"/>
<rect x="434" y="764" width="33" height="33" fill="#000000"/>
<rect x="467" y="764" width="33" height="33" fill="#000000"/>
<rect x="533" y="764" width="33" height="33" fill="#000000"/>
<rect x="566" y="764" width="33" height="33" fill="#000000"/>
<rect x="632" y="764" width="33" height="33" fill="#000000"/>
<rect x="665" y="764" width="33" height="33" fill="#000000"/>
<rect x="698" y="764" width="33" height="33" fill="#000000"/>
<rect x="797" y="764" width="33" height="33" fill="#000000"/>
<rect x="830" y="764" width="33" height="33" fill="#000000"/>
<rect x="896" y="764" width="33" height="33" fill="#000000"/>
<rect x="929" y="764" width="33" height="33" fill="#000000"/>
<rect x="203" y="797" width="33" height="33" fill="#000000"/>
<rect x="269" y="797" width="33" height="33" fill="#000000"/>
<rect x="302" y="797" width="33" height="33" fill="#000000"/>
<rect x="401" y="797" width="33" height="33" fill="#000000"/>
<rect x="500" y="797" width="33" height="33" fill="#000000"/>
<rect x="566" y="797" width="33" height="33" fill="#000000"/>
<rect x="599" y="797" width="33" height="33" fill="#000000"/>
<rect x="632" y="797" width="33" height="33" fill="#000000"/>
<rect x="665" y="797" width="33" height="33" fill="#000000"/>
<rect x="797" y="797" width="33" height="33" fill="#000000"/>
<rect x="830" y="797" width="33" height="33" fill="#000000"/>
<rect x="863" y="797" width="33" height="33" fill="#000000"/>
<rect x="896" y="797" width="33" height="33" fill="#000000"/>
<rect x="929" y="797" width="33" height="33" fill="#000000"/>
<rect x="995" y="797" width="33" height="33" fill="#000000"/>
<rect x="1094" y="797" width="33" height="33" fill="#000000"/>
<rect x="38" y="830" width="33" height="33" fill="#000000"/>
<rect x="71" y="830" width="33" height="33" fill="#000000"/>
<rect x="170" y="830" width="33" height="33" fill="#000000"/>
<rect x="236" y="830" width="33" height="33" fill="#000000"/>
<rect x="368" y="830" width="33" height="33" fill="#000000"/>
<rect x="467" y="830" width="33" height="33" fill="#000000"/>
<rect x="533" y="830" width="33" height="33" fill="#000000"/>
<rect x="599" y="830" width="33" height="33" fill="#000000"/>
<rect x="632" y="830" width="33" height="33" fill="#000000"/>
<rect x="698" y="830" width="33" height="33" fill="#000000"/>
<rect x="731" y="830" width="33" height="33" fill="#000000"/>
<rect x="764" y="830" width="33" height="33" fill="#000000"/>
<rect x="797" y="830" width="33" height="33" fill="#000000"/>
<rect x="830" y="830" width="33" height="33" fill="#000000"/>
<rect x="863" y="830" width="33" height="33" fill="#000000"/>
<rect x="896" y="830" width="33" height="33" fill="#000000"/>
<rect x="929" y="830" width="33" height="33" fill="#000000"/>
<rect x="962" y="830" width="33" height="33" fill="#000000"/>
<rect x="1028" y="830" width="33" height="33" fill="#000000"/>
<rect x="1061" y="830" width="33" height="33" fill="#000000"/>
<rect x="1094" y="830" width="33" height="33" fill="#000000"/>
<rect x="302" y="863" width="33" height="33" fill="#000000"/>
<rect x="335" y="863" width="33" height="33" fill="#000000"/>
<rect x="434" y="863" width="33" height="33" fill="#000000"/>
<rect x="500" y="863" width="33" height="33" fill="#000000"/>
<rect x="533" y="863" width="33" height="33" fill="#000000"/>
<rect x="566" y="863" width="33" height="33" fill="#000000"/>
<rect x="599" y="863" width="33" height="33" fill="#000000"/>
<rect x="665" y="863" width="33" height="33" fill="#000000"/>
<rect x="698" y="863" width="33" height="33" fill="#000000"/>
<rect x="764" y="863" width="33" height="33" fill="#000000"/>
<rect x="797" y="863" width="33" height="33" fill="#000000"/>
<rect x="830" y="863" width="33" height="33" fill="#000000"/>
<rect x="962" y="863" width="33" height="33" fill="#000000"/>
<rect x="995" y="863" width="33" height="33" fill="#000000"/>
<rect x="1061" y="863" width="33" height="33" fill="#000000"/>
<rect x="1094" y="863" width="33" height="33" fill="#000000"/>
<rect x="38" y="896" width="33" height="33" fill="#000000"/>
<rect x="71" y="896" width="33" height="33" fill="#000000"/>
<rect x="104" y="896" width="33" height="33" fill="#000000"/>
<rect x="137" y="896" width="33" height="33" fill="#000000"/>
<rect x="170" y="896" width="33" height="33" fill="#000000"/>
<rect x="203" y="896" width="33" height="33" fill="#000000"/>
<rect x="236" y="896" width="33" height="33" fill="#000000"/>
<rect x="302" y="896" width="33" height="33" fill="#000000"/>
<rect x="335" y="896" width="33" height="33" fill="#000000"/>
<rect x="467" y="896" width="33" height="33" fill="#000000"/>
<rect x="500" y="896" width="33" height="33" fill="#000000"/>
<rect x="566" y="896" width="33" height="33" fill="#000000"/>
<rect x="698" y="896" width="33" height="33" fill="#000000"/>
<rect x="731" y="896" width="33" height="33" fill="#000000"/>
<rect x="764" y="896" width="33" height="33" fill="#000000"/>
<rect x="797" y="896" width="33" height="33" fill="#000000"/>
<rect x="830" y="896" width="33" height="33" fill="#000000"/>
<rect x="896" y="896" width="33" height="33" fill="#000000"/>
<rect x="962" y="896" width="33" height="33" fill="#000000"/>
<rect x="995" y="896" width="33" height="33" fill="#000000"/>
<rect x="38" y="929" width="33" height="33" fill="#000000"/>
<rect x="236" y="929" width="33" height="33" fill="#000000"/>
<rect x="302" y="929" width="33" height="33" fill="#000000"/>
<rect x="368" y="929" width="33" height="33" fill="#000000"/>
<rect x="434" y="929" width="33" height="33" fill="#000000"/>
<rect x="500" y="929" width="33" height="33" fill="#000000"/>
<rect x="533" y="929" width="33" height="33" fill="#000000"/>
<rect x="632" y="929" width="33" height="33" fill="#000000"/>
<rect x="797" y="929" width="33" height="33" fill="#000000"/>
<rect x="830" y="929" width="33" height="33" fill="#000000"/>
<rect x="962" y="929" width="33" height="33" fill="#000000"/>
<rect x="995" y="929" width="33" height="33" fill="#000000"/>
<rect x="1094" y="929" width="33" height="33" fill="#000000"/>
<rect x="38" y="962" width="33" height="33" fill="#000000"/>
<rect x="104" y="962" width="33" height="33" fill="#000000"/>
<rect x="137" y="962" width="33" height="33" fill="#000000"/>
<rect x="170" y="962" width="33" height="33" fill="#000000"/>
<rect x="236" y="962" width="33" height="33" fill="#000000"/>
<rect x="368" y="962" width="33" height="33" fill="#000000"/>
<rect x="401" y="962" width="33" height="33" fill="#000000"/>
<rect x="467" y="962" width="33" height="33" fill="#000000"/>
<rect x="566" y="962" width="33" height="33" fill="#000000"/>
<rect x="599" y="962" width="33" height="33" fill="#000000"/>
<rect x="632" y="962" width="33" height="33" fill="#000000"/>
<rect x="731" y="962" width="33" height="33" fill="#000000"/>
<rect x="764" y="962" width="33" height="33" fill="#000000"/>
<rect x="797" y="962" width="33" height="33" fill="#000000"/>
<rect x="830" y="962" width="33" height="33" fill="#000000"/>
<rect x="863" y="962" width="33" height="33" fill="#000000"/>
<rect x="896" y="962" width="33" height="33" fill="#000000"/>
<rect x="929" y="962" width="33" height="33" fill="#000000"/>
<rect x="962" y="962" width="33" height="33" fill="#000000"/>
<rect x="1028" y="962" width="33" height="33" fill="#000000"/>
<rect x="1061" y="962" width="33" height="33" fill="#000000"/>
<rect x="1094" y="962" width="33" height="33" fill="#000000"/>
<rect x="38" y="995" width="33" height="33" fill="#000000"/>
<rect x="104" y="995" width="33" height="33" fill="#000000"/>
<rect x="137" y="995" width="33" height="33" fill="#000000"/>
<rect x="170" y="995" width="33" height="33" fill="#000000"/>
<rect x="236" y="995" width="33" height="33" fill="#000000"/>
<rect x="335" y="995" width="33" height="33" fill="#000000"/>
<rect x="368" y="995" width="33" height="33" fill="#000000"/>
<rect x="434" y="995" width="33" height="33" fill="#000000"/>
<rect x="500" y="995" width="33" height="33" fill="#000000"/>
<rect x="599" y="995" width="33" height="33" fill="#000000"/>
<rect x="830" y="995" width="33" height="33" fill="#000000"/>
<rect x="863" y="995" width="33" height="33" fill="#000000"/>
<rect x="1061" y="995" width="33" height="33" fill="#000000"/>
<rect x="38" y="1028" width="33" height="33" fill="#000000"/>
<rect x="104" y="1028" width="33" height="33" fill="#000000"/>
<rect x="137" y="1028" width="33" height="33" fill="#000000"/>
<rect x="170" y="1028" width="33" height="33" fill="#000000"/>
<rect x="236" y="1028" width="33" height="33" fill="#000000"/>
<rect x="302" y="1028" width="33" height="33" fill="#000000"/>
<rect x="335" y="1028" width="33" height="33" fill="#000000"/>
<rect x="368" y="1028" width="33" height="33" fill="#000000"/>
<rect x="500" y="1028" width="33" height="33" fill="#000000"/>
<rect x="533" y="1028" width="33" height="33" fill="#000000"/>
<rect x="632" y="1028" width="33" height="33" fill="#000000"/>
<rect x="698" y="1028" width="33" height="33" fill="#000000"/>
<rect x="731" y="1028" width="33" height="33" fill="#000000"/>
<rect x="830" y="1028" width="33" height="33" fill="#000000"/>
<rect x="863" y="1028" width="33" height="33" fill="#000000"/>
<rect x="896" y="1028" width="33" height="33" fill="#000000"/>
<rect x="929" y="1028" width="33" height="33" fill="#000000"/>
<rect x="995" y="1028" width="33" height="33" fill="#000000"/>
<rect x="1061" y="1028" width="33" height="33" fill="#000000"/>
<rect x="1094" y="1028" width="33" height="33" fill="#000000"/>
<rect x="38" y="1061" width="33" height="33" fill="#000000"/>
<rect x="236" y="1061" width="33" height="33" fill="#000000"/>
<rect x="335" y="1061" width="33" height="33" fill="#000000"/>
<rect x="368" y="1061" width="33" height="33" fill="#000000"/>
<rect x="467" y="1061" width="33" height="33" fill="#000000"/>
<rect x="533" y="1061" width="33" height="33" fill="#000000"/>
<rect x="566" y="1061" width="33" height="33" fill="#000000"/>
<rect x="599" y="1061" width="33" height="33" fill="#000000"/>
<rect x="698" y="1061" width="33" height="33" fill="#000000"/>
<rect x="764" y="1061" width="33" height="33" fill="#000000"/>
<rect x="863" y="1061" width="33" height="33" fill="#000000"/>
<rect x="962" y="1061" width="33" height="33" fill="#000000"/>
<rect x="995" y="1061" width="33" height="33" fill="#000000"/>
<rect x="1028" y="1061" width="33" height="33" fill="#000000"/>
<rect x="1061" y="1061" width="33" height="33" fill="#000000"/>
<rect x="1094" y="1061" width="33" height="33" fill="#000000"/>
<rect x="38" y="1094" width="33" height="33" fill="#000000"/>
<rect x="71" y="1094" width="33" height="33" fill="#000000"/>
<rect x="104" y="1094" width="33" height="33" fill="#000000"/>
<rect x="137" y="1094" width="33" height="33" fill="#000000"/>
<rect x="170" y="1094" width="33" height="33" fill="#000000"/>
<rect x="203" y="1094" width="33" height="33" fill="#000000"/>
<rect x="236" y="1094" width="33" height="33" fill="#000000"/>
<rect x="335" y="1094" width="33" height="33" fill="#000000"/>
<rect x="533" y="1094" width="33" height="33" fill="#000000"/>
<rect x="632" y="1094" width="33" height="33" fill="#000000"/>
<rect x="665" y="1094" width="33" height="33" fill="#000000"/>
<rect x="698" y="1094" width="33" height="33" fill="#000000"/>
<rect x="830" y="1094" width="33" height="33" fill="#000000"/>
<rect x="962" y="1094" width="33" height="33" fill="#000000"/>
<rect x="1094" y="1094" width="33" height="33" fill="#000000"/>
</svg>

